<?xml version="1.0" encoding="UTF-8"?>
<svg id="Layer_1" data-name="Layer 1" xmlns="http://www.w3.org/2000/svg" viewBox="0 0 4320 3600">
  <defs>
    <style>
      .cls-1 {
        fill: #f0ddbc;
      }

      .cls-2 {
        fill: #fff;
      }
    </style>
  </defs>
  <path class="cls-2" d="M4320,3600H0C0,2400,0,1200,0,0,1440,0,2880,0,4320,0V3600ZM702.45,2210.27c.53,.03,1.06,.06,1.59,.1,0,3.65,0,7.3,0,10.95,0,72.99,0,145.99,0,218.98,0,2.33-.04,4.67,0,7q.17,8.55,9.17,8.7c1.33,.02,2.67,0,4,0,29.33,0,58.66,.02,87.99,0,13.94-.01,12.78,1.12,12.78-13.09,.01-194.65,0-389.31,0-583.96,0-1.67,.04-3.33-.01-5-.24-7.66-.25-7.86-7.95-7.88-36-.08-72,.04-107.99-.12-5.15-.02-7.42,1.42-8.79,6.77-4.21,16.39-8.42,32.8-12.67,49.18-15.26,58.79-29.71,117.78-44.7,176.64-2.7,10.62-4.35,21.6-9.1,32.75-1.12-2.24-1.93-3.34-2.25-4.57-5.54-21.53-11.04-43.08-16.51-64.63-15.92-62.73-31.8-125.47-47.73-188.2-1.95-7.67-2.06-7.77-9.99-7.81-16.33-.09-32.66-.03-49-.03-19,0-38-.06-57,.03-8.17,.04-8.18,.19-8.38,8.47-.02,1,0,2,0,3,0,195.65,0,391.31,0,586.96,0,2.33,.04,4.67,.1,7,.06,2.78,1.48,4.31,4.29,4.4,2.66,.08,5.33,.11,8,.11,29.66,0,59.33,.02,88.99,0,13.28,0,12.59,1.09,12.59-12.3,0-73.66-.01-147.32,.04-220.98,0-3.52-.67-7.13,.57-10.59,1.45,.26,1.33,1.4,1.56,2.31,18.62,74.37,37.15,148.77,55.91,223.11,5.71,22.64,.85,17.95,23.67,18.42,9.43,.19,9.53,0,11.83-9.22,12.21-48.95,24.35-97.92,36.55-146.87,7.44-29.88,14.95-59.74,22.42-89.6Zm2413.65-124.33c-.54-.05-1.07-.1-1.61-.15-.69-1.82-1.55-3.59-2.05-5.46-8.78-33.04-17.57-66.07-26.23-99.14-10.93-41.74-21.72-83.51-32.6-125.26-2.5-9.6-2.86-9.87-12.92-9.89-25.33-.04-50.66-.03-75.98,0-13.88,.01-12.81-1.09-12.81,13.08,0,194.63,0,389.26,0,583.88,0,2.33,.11,4.67,0,7-.19,4.17,1.61,6.13,5.9,6.02,5.33-.14,10.66-.01,16-.01,24.66,0,49.32,.03,73.99-.01,10.2-.01,10.2-.07,10.26-10.6,.01-2,0-4,0-6,0-63.99,0-127.97,0-191.96v-9.18c2.1,1.69,2.99,3.42,3.47,5.26,7.54,28.9,15.04,57.81,22.51,86.73,10.13,39.2,20.19,78.42,30.34,117.61,2.09,8.07,2.2,8.13,10.95,8.14,28.66,.04,57.32,.03,85.98,.01,13.39,0,12.66,1.11,12.66-12.21,0-195.29,0-390.59,0-585.88,0-2.67,0-5.33-.14-7.99-.13-2.35-1.56-3.62-3.85-3.74-2.66-.14-5.33-.14-7.99-.14-27.99,0-55.99,0-83.98,0-12.61,0-11.88-.76-11.88,12,0,72.32,0,144.64,0,216.96,0,3.65,0,7.3,0,10.94Zm-1541.66-677.17c2.6-.51,3.9-.68,5.15-1.02,32.61-8.87,53.51-37.39,52.71-69.97-1.04-42.96-.56-85.98-.12-128.96,.19-19.02-4.94-36.38-15.05-51.9-22.39-34.4-55.63-47.98-95.58-46.42-6.2,.24-12.5,1.39-18.81,1.39-43.66,.01-87.31,0-130.97,0-12.53,0-11.84-.71-11.84,12.06,0,195.29,0,390.57,0,585.86,0,2.33,.04,4.66,.05,7,.02,3.2,1.47,4.99,4.81,4.99,2,0,4,.07,6,.07,52.32,0,104.64,.14,156.96-.13,8.88-.05,17.84-1.4,26.62-2.98,20.36-3.68,37.03-14.03,51.13-29.03,16.89-17.97,26.38-38.98,26.48-63.74,.19-49.99,.12-99.98,.03-149.96-.05-23.41-10.64-41.22-29.32-54.88-8.2-6-17.99-8.04-28.25-12.36Zm1288.85,743.81c14.94-3.01,27.03-9.84,36.86-20.15,14.29-15,19.58-33.67,19.66-53.88,.19-45.66,.42-91.33-.17-136.98-.17-13.12-2.01-26.19-6.93-38.92-13.37-34.61-47.32-56.54-82.9-56.59-57.99-.09-115.99-.02-173.98-.03-12.49,0-11.73-.7-11.73,12.15,0,195.31,0,390.62,0,585.93,0,2.67,0,5.33,.15,7.99,.12,2.35,1.56,3.6,3.85,3.76,1.99,.14,4,.14,5.99,.14,31.33,0,62.66,.03,93.99,0,9.88-.01,9.88-.09,9.98-9.89,.02-2,0-4,0-6,0-72.99,0-145.98,0-218.97,0-2.67,.05-5.33,.04-8-.02-3.18,1.34-4.77,4.7-5.1,20.11-1.96,38.66,8.73,41.83,28.37,.7,4.3,1.24,8.52,1.24,12.83,.01,64.33,0,128.65,0,192.98,0,2.67,.12,5.34,0,8-.2,4.36,2.02,5.98,6.11,5.79,2-.09,4,0,6,0,30,0,59.99,0,89.99,0,12.61,0,11.87,.67,11.87-12.03,0-69.66,0-139.32-.01-208.98,0-7.63-.43-15.17-1.52-22.81-3.91-27.42-19.25-45.13-44.44-55.2-3.32-1.33-7.45-.47-10.61-4.4ZM734.14,1415.77c0,96.99,0,193.97,0,290.96,0,3,0,6,.06,9,.1,4.09,2.34,6.02,6.33,6.08,2.33,.04,4.67,.05,7,.05,27,0,53.99,0,80.99,0,4.67,0,9.33-.06,14-.02,3.64,.04,5.62-1.52,5.56-5.32-.04-2.67,.02-5.33,.02-8,0-70.99,0-141.98,0-212.97,0-4.67-.03-9.33,0-14,.07-11.08,.36-11.41,11.01-11.48,8.33-.05,16.66-.05,25,0,9.85,.06,9.85,.09,9.95,9.93,.02,2,0,4,0,6,0,73.99,0,147.98,0,221.96,0,2.67-.01,5.33,.07,8,.11,3.56,2.02,5.54,5.56,5.77,2.32,.15,4.66,.11,6.99,.11,29,0,57.99,.02,86.99,0,14.28-.01,14.32-.08,14.32-14.67,0-193.97,0-387.94,0-581.91,0-2,.06-4-.01-6-.25-7.07-1.62-8.5-8.85-9.08-1.99-.16-4-.05-6-.05-28.66,0-57.32-.01-85.99,0q-13.06,0-13.08,13.43c0,74.66,0,149.31,0,223.97,0,2.67-.15,5.34,.01,8,.3,4.74-1.87,6.51-6.51,6.43-10.66-.17-21.33,.12-31.99-.12-6.27-.14-7.1-1.28-7.45-7.96-.12-2.33-.03-4.66-.03-7,0-74.32,0-148.64,0-222.97,0-2.67-.11-5.34,0-8,.18-4.36-2.06-5.97-6.14-5.79-2,.09-4,0-6,0-29.33,0-58.66,0-87.99,0q-13.82,0-13.84,13.68c0,97.32,0,194.64,0,291.96Zm1299.8,734.9c0,67.64,.04,135.29-.05,202.93-.01,8.38,1.12,16.46,3.09,24.61,10.65,43.91,49.65,81.16,99.47,85.16,25.02,2.01,50.53,2.59,75.71-1.26,23.06-3.53,43.05-13.54,59.9-29.43,24.31-22.93,35.66-51.85,35.73-84.83,.28-125.96,.14-251.92,.07-377.87,0-10.94-.13-21.82-1.53-32.8-3.34-26.2-14.6-48.34-33.07-66.5-22.03-21.65-49.17-32.25-80.12-32.6-16.33-.19-32.66-.04-48.98-.01-3,0-6.05-.21-8.98,.27-26.94,4.38-50.76,14.69-69.84,35.09-20.21,21.6-31.45,46.49-31.42,76.32,.09,66.98,.03,133.96,.03,200.93Zm578.2-41.69c0-84.32,.01-168.63-.01-252.95,0-9.89-.09-9.97-9.91-9.98-29.66-.04-59.32-.03-88.98,0-14.73,.01-13.33-1.14-13.33,13.55-.02,154.3-.01,308.61-.02,462.91,0,3.33,.25,6.7-.15,9.99-1.55,12.94-9.99,21.06-22.11,21.55-13.52,.55-20.75-5.23-24.26-18.51-1.23-4.65-1.26-9.2-1.26-13.84-.02-153.64-.02-307.27-.02-460.91,0-2.67-.12-5.34,.01-8,.22-4.4-1.16-7.14-6.16-6.76-1.66,.13-3.33,0-5,0-29.99,0-59.99,0-89.98,0-2,0-4,.06-6,.05-3.2,0-5.01,1.4-5.01,4.77,0,2-.07,4-.07,6,0,166.3,.04,332.6-.05,498.9,0,13.24,2.74,25.93,8.12,37.71,20.86,45.68,57.43,68.48,107,70.21,18.88,.66,37.82,.9,56.81-1.28,18.39-2.11,35.48-7.65,50.14-18.04,32.92-23.31,50.79-54.77,50.42-96.43-.7-79.64-.2-159.3-.2-238.95Zm43.82-628.89c.37-.07,.74-.14,1.1-.21,.94,3.05,2.05,6.05,2.8,9.15,10.77,44.5,21.45,89.01,32.24,133.5,7.2,29.66,14.61,59.28,21.76,88.95,1.18,4.88,2.22,8.74,8.61,8.7,29.66-.19,59.32-.02,88.98-.13,6.47-.02,6.71-.39,5.16-7.07-5.76-24.88-11.56-49.76-17.56-74.58-10.84-44.82-21.85-89.6-32.75-134.4-6.51-26.75-12.94-53.53-19.47-80.28-1.21-4.96-1.3-9.87-.16-14.81,2.01-8.73,3.99-17.46,6.11-26.16,10.92-44.8,21.9-89.59,32.82-134.39,10.38-42.55,20.72-85.11,31.07-127.67,2.36-9.71,1.85-10.5-7.76-10.52-27.99-.06-55.99-.05-83.98,0-8.45,.02-8.67,.17-10.69,8.44-3.85,15.79-7.48,31.63-11.3,47.43-11.63,48.04-23.28,96.08-34.99,144.11-3.42,14.03-7.04,28.02-10.58,42.03-.47-.08-.95-.16-1.42-.24,0-3.63,0-7.25,0-10.88,0-71.99,0-143.97-.02-215.96,0-14.24,1.12-13.18-12.7-13.19-29.33-.02-58.65-.02-87.98,0-14.64,.01-13.25-1.12-13.26,13.63-.02,194.29-.01,388.59-.01,582.88,0,2-.06,4,.01,6,.27,7.03,.4,7.39,7.42,7.41,32.66,.1,65.32,.11,97.98,0,7.53-.03,8.28-1.08,8.53-8.92,.07-2.33,.02-4.67,.02-7,0-71.65,0-143.3,0-214.96,0-3.61,0-7.23,0-10.84Zm-420.03-64.34h.02c0,68.65-.1,137.31,.06,205.96,.04,18.36,5.83,35.26,15.24,50.9,7.59,12.62,16.83,23.71,28.8,32.69,18.36,13.76,38.5,22.28,61.54,22.69,20.99,.38,41.99,.1,62.99,.05,3.97-.01,7.88-.37,11.87-1.09,24.48-4.45,44.69-16.28,61.81-34.07,20.36-21.16,30.71-46.92,31.32-75.61,1.08-50.63,.32-101.31,.28-151.97,0-9.22-.12-9.31-9.53-9.33-31.66-.04-63.32-.02-94.98-.01-1.67,0-3.33,.04-5,.1-2.8,.1-4.24,1.6-4.3,4.38-.06,2.66-.1,5.33-.1,8,0,40.33,0,80.65,0,120.98,0,2.67,.33,5.39-.1,7.99-1.35,8-3.31,15.63-11.76,19.56-17.99,8.37-34.14-1.68-34.18-21.52-.06-27.99-.02-55.99-.02-83.99,0-91.98-.01-183.97,.02-275.95,0-12.38,7.32-21.27,18.87-23.29,11.42-2,22.01,5.07,25.95,16.87,1.32,3.96,1.2,7.87,1.2,11.83,.03,32.33,0,64.66,.03,96.98,.01,9.96,.08,10.04,9.8,10.05,31.33,.04,62.66,.02,93.98,.01,1.33,0,2.67-.08,4,0,4.05,.22,6.35-1.33,6.14-5.73-.11-2.33,0-4.66,0-7,0-37.33,.02-74.65,0-111.98-.02-35.25-11.19-65.91-37.68-90.05-20.12-18.34-43.42-29.21-71.1-29.28-17.66-.04-35.33,.21-52.99-.08-26.39-.44-49.51,7.89-69.86,24.59-27.58,22.64-42.27,51.47-42.31,87.36-.07,66.65-.02,133.31-.02,199.96Zm-166.08-305.61c-19.66,0-39.32,.1-58.98-.06-5.51-.04-8.43,1.49-9.35,7.6-1.53,10.16-2.61,20.36-3.97,30.53-2.41,18.04-5.08,36.05-7.56,54.08-2.21,16.08-4.28,32.17-6.48,48.25-2.47,18.04-5.05,36.05-7.5,54.09-2.27,16.74-4.37,33.49-6.66,50.23-2.38,17.38-4.95,34.73-7.32,52.12-2.23,16.41-4.19,32.85-6.48,49.26-2.37,17.05-5.6,33.99-7.32,51.1-1.76,17.49-4.95,34.75-6.79,52.23-2.28,21.71-6.26,43.23-9.32,64.86-3.43,24.26-6.92,48.51-9.75,72.84-.69,5.93-2.2,11.73-2.4,17.73-.15,4.36,.91,6.92,5.99,6.9,28.66-.11,57.32-.11,85.98,.02,4.17,.02,5.73-1.97,6.96-5.54,1.45-4.24,.84-8.59,1.48-12.85,2.61-17.34,5.21-34.69,7.48-52.09,1.17-8.99,1.05-9.33,10.27-9.37,18.99-.08,37.99-.03,56.99-.02,3.67,0,7.33-.04,11,.09,3.53,.12,5.36,2.05,5.79,5.59,1.32,10.85,2.74,21.68,4.13,32.52,1.43,11.17,2.68,22.37,4.37,33.5,1.09,7.18,2.36,8.04,9.9,8.09,12.66,.08,25.33,.03,37.99,.02,15,0,29.99,.1,44.99-.06,6.32-.07,6.92-.74,6.58-7.06-.23-4.28-1.29-8.5-1.85-12.77-2.19-16.75-4.2-33.52-6.51-50.25-2.35-17.05-5.09-34.04-7.43-51.09-2.35-17.06-4.34-34.17-6.62-51.24-2.41-18.04-4.97-36.07-7.48-54.1-1.78-12.78-3.59-25.56-5.37-38.35-1.55-11.15-3.12-22.3-4.57-33.47-2.27-17.4-4.35-34.83-6.69-52.23-2.34-17.39-4.9-34.74-7.36-52.11-1.81-12.78-3.68-25.55-5.4-38.34-1.63-12.15-3.07-24.32-4.64-36.47-1.53-11.82-3.1-23.64-4.72-35.45-2.39-17.38-4.88-34.75-7.24-52.13-1.61-11.81-2.75-23.7-4.7-35.45-1.85-11.15-2.19-11.12-13.44-11.13-18.66-.03-37.32,0-55.99,0Zm1176.64,1344.47c1.6,.6,2.51,1.24,3.42,1.24,30,.09,59.99,.07,89.99,.19,4.17,.02,5.73-1.64,6.25-5.79,1.71-13.8,3.56-27.59,5.91-41.29,1.46-8.5,1.54-17.14,3.52-25.59,.95-4.07,2.65-5.51,6.67-5.5,23,.1,46,.2,68.99-.08,5.28-.06,7.24,2.53,7.91,6.84,.71,4.58,.76,9.27,1.43,13.86,2.38,16.38,5.02,32.72,7.31,49.12,1.15,8.24,.91,8.35,9.63,8.38,15,.06,30,.02,45,.02,13,0,26,.11,39-.06,6.08-.08,6.16-.49,5.34-6.31-1.66-11.81-3.29-23.62-4.83-35.44-2.19-16.75-4.24-33.52-6.46-50.27-2.48-18.71-5.04-37.4-7.66-56.09-1.74-12.46-3.75-24.88-5.45-37.34-2.27-16.74-4.31-33.51-6.54-50.26-1.61-12.14-3.35-24.27-5.05-36.4-1.61-11.48-3.28-22.95-4.86-34.43-2.47-18.04-4.87-36.09-7.32-54.14-1.56-11.49-3.2-22.96-4.69-34.46-1.62-12.48-2.96-25-4.67-37.48-2.33-17.06-5.16-34.05-7.27-51.13-2.07-16.77-4.78-33.44-6.68-50.24-2.45-21.7-6.31-43.24-9.27-64.88-1.5-10.95-1.2-11.03-12.69-11.03-37.66-.02-75.33,0-112.99,0-2,0-4,.03-6,.05-4.07,.04-6.2,2.2-6.27,6.17-.22,11.66-3.1,22.98-4.31,34.52-1.27,12.17-3.5,24.24-5.19,36.37-2.27,16.4-4.48,32.82-6.61,49.24-2.26,17.41-4.32,34.85-6.64,52.25-2.37,17.72-4.94,35.41-7.44,53.11-1.76,12.46-3.63,24.9-5.32,37.36-1.65,12.15-3.09,24.32-4.7,36.47-1.61,12.15-3.27,24.28-4.98,36.42-2.27,16.07-4.72,32.11-6.88,48.19-1.72,12.8-2.96,25.67-4.7,38.48-2.31,17.06-5,34.06-7.33,51.12-2.28,16.74-4.18,33.53-6.48,50.27-3.6,26.21-7.39,52.39-11.1,78.56ZM992.49,1846.04c-19.66,0-39.32-.03-58.98,.01-8.58,.02-8.6,.09-10.51,8.13-.38,1.61-.7,3.24-.9,4.88-2.14,17.42-4.05,34.87-6.44,52.26-2.97,21.64-7.02,43.15-9.34,64.86-2.4,22.41-6.31,44.59-8.79,66.99-2.98,26.96-7.7,53.73-11.35,80.62-3.65,26.9-6.73,53.89-10.41,80.79-4.35,31.81-9.24,63.55-13.6,95.36-3.68,26.9-6.76,53.88-10.42,80.79-2.95,21.64-6.43,43.21-9.56,64.83-1.32,9.1-.13,10.42,9.15,10.43,26.32,.05,52.65,.04,78.97,0,9.18-.01,10.37-1.04,11.53-9.7,2.75-20.68,5.6-41.34,8.03-62.06,.54-4.61,2.06-6.41,6.7-6.38,23.66,.12,47.32,.12,70.98,0,4.76-.02,6.02,2.07,6.54,6.56,2.46,21.38,5.29,42.71,8.1,64.05,.77,5.83,2.5,7.46,8.41,7.48,28.32,.1,56.65,.11,84.97-.01,5.85-.02,7.16-1.4,6.21-7.33-1.79-11.13-3.13-22.3-4.53-33.47-2.18-17.4-4.9-34.74-7.26-52.12-2.23-16.41-4.19-32.85-6.47-49.25-2.37-17.04-5.1-34.04-7.45-51.09-2.35-17.06-4.33-34.17-6.61-51.24-2.41-18.04-5.04-36.05-7.47-54.09-1.59-11.82-2.87-23.68-4.48-35.49-2.45-18.04-5.02-36.06-7.59-54.08-1.78-12.45-3.7-24.87-5.47-37.32-1.54-10.82-3.02-21.65-4.41-32.49-2.23-17.41-4.24-34.85-6.55-52.25-2.39-18.04-4.99-36.06-7.57-54.08-1.83-12.78-3.63-25.56-5.74-38.29-1.19-7.19-1.47-7.26-8.72-7.28-19.66-.07-39.32-.02-58.98-.02Zm429.65,305.11c0,96.64,0,193.27,0,289.91,0,2.67,.04,5.33,.03,8-.01,4.39,1.89,6.94,6.54,6.92,1.67,0,3.33,.04,5,.04,69.64,0,139.29,.01,208.93-.01,10.81,0,11.19-.4,11.21-11.29,.04-28.99,.02-57.98,.01-86.97,0-2,.03-4-.11-5.99-.24-3.57-2.29-5.4-5.81-5.53-2.66-.1-5.33-.07-8-.07-31.32,0-62.65,.02-93.97-.02-9.77-.01-9.85-.09-9.86-10.04-.03-39.99-.03-79.97,0-119.96,0-10.12,.08-10.16,10.7-10.17,23.33-.03,46.65,.03,69.98-.03,8.95-.02,9.09-.13,9.11-8.71,.06-30.32,.07-60.65,0-90.97-.02-9.48-.66-10.08-10.35-10.11-22.66-.07-45.32-.02-67.98-.03-2.33,0-4.66-.04-7-.1-2.8-.08-4.26-1.57-4.37-4.34-.08-2-.1-4-.1-6,0-39.65,0-79.31,0-118.96,0-1.67,.09-3.34,0-5-.2-4.31,1.98-6,6.09-5.83,2.33,.1,4.66,0,7,0,31.32,0,62.65,.03,93.97-.02,10.16-.02,10.66-.54,10.68-10.8,.05-29.32,.02-58.65,.01-87.97,0-1.67,0-3.33-.07-5-.18-4.07-2.42-5.98-6.41-5.99-1.67,0-3.33-.04-5-.04-69.64,0-139.29-.01-208.93,.01-10.91,0-11.2,.36-11.31,11.19-.02,2,0,4,0,6v287.91Zm-382.03-735.19c0,97.99,0,195.99,0,293.98,0,11.48,.32,11.9,10.59,11.91,70,.04,139.99,.04,209.99,0,9.29,0,9.38-.13,9.4-9.49,.05-30.33,.02-60.66,.02-90.99,0-1.33-.06-2.67-.03-4,.1-3.79-1.83-5.43-5.51-5.35-2.33,.05-4.67-.02-7-.02-30.33,0-60.66,0-90.99,0-2.67,0-5.33-.04-8-.09-2.78-.06-4.3-1.48-4.4-4.28-.07-2-.1-4-.1-6,0-40,0-80,0-119.99,0-1.67,.03-3.33,.04-5,.01-4.61,2.46-6.6,6.92-6.53,2.33,.04,4.67-.02,7-.02,22.33,0,44.66,.05,67-.03,8.62-.03,8.82-.15,8.84-8,.09-30.66,.09-61.33,0-91.99-.02-7.94-.22-8.06-8.75-8.09-22-.08-44-.03-66-.03-2.33,0-4.67,.09-7-.03-6.94-.35-7.7-1.18-8.04-8.43-.05-1-.01-2-.01-3,0-40,0-80,0-119.99,0-2,.04-4,.09-6,.08-2.79,1.52-4.29,4.32-4.37,2.66-.07,5.33-.1,8-.1,31,0,62,.01,92.99-.01,10.54,0,10.6-.06,10.62-10.26,.04-26.33,.01-52.66,.01-79,0-5-.07-10,0-15,.05-3.67-1.51-5.62-5.32-5.57-2.33,.03-4.67-.04-7-.04-68,0-135.99,0-203.99,0q-13.67,0-13.69,13.83c0,97.33,0,194.66,0,291.98Zm-528.06,54.37c0,79.33,0,158.65,0,237.98q0,13.54,13.96,13.56c28.33,0,56.66,.01,84.99,0q15,0,15-14.99c0-156.99,0-313.98,0-470.96,0-2.67-.06-5.33,.02-8,.23-7.64,.25-7.82,7.97-7.86,19.66-.11,39.33,.01,59-.06,8.93-.03,9.08-.14,9.09-8.76,.07-30.66,.06-61.33,0-91.99-.02-8.91-.14-8.92-8.81-9.09-2-.04-4,0-6,0-78.66,0-157.32,0-235.98,0-2.67,0-5.34-.08-8,.02-6.93,.28-7.3,.44-7.32,7.53-.09,31.66-.1,63.33,0,94.99,.02,6.95,.36,7.23,7.52,7.28,18.66,.12,37.33,.03,56,.05,13.3,0,12.55-1.02,12.55,12.33,0,79.33,0,158.65,0,237.98Zm1152-54.65c0,97.99,0,195.98,0,293.97,0,12.12,.09,12.16,12.29,12.22,.33,0,.67,0,1,0,68.33,0,136.65,0,204.98,0,1.67,0,3.34-.14,5,.01,5.37,.48,7.16-2.27,6.74-7.2-.11-1.32-.01-2.66-.01-4,0-29.33,0-58.66,0-87.99,0-1,.03-2,0-3-.27-7.29-.33-7.37-7.18-7.67-2-.09-4-.02-6-.02-30,0-59.99,.02-89.99,0-13.95-.01-12.85,1.2-12.85-13.01-.01-158.32,0-316.64-.01-474.95,0-3-.06-6-.06-9,0-3.32-1.7-4.84-4.95-4.83-2.33,0-4.67-.05-7-.05-29.33,0-58.66,0-87.99,0q-13.93,0-13.95,13.56c0,97.32,0,194.65,0,291.97Zm1902,734.75c0,97.31,0,194.62,0,291.93,0,2.67,.08,5.33,0,8-.09,3.61,1.33,5.7,5.21,5.62,2-.04,4,.04,6,.04,69.32,0,138.63,0,207.95,0,2,0,4-.07,6-.06,3.37,.02,4.78-1.78,4.78-4.98,0-2,.05-4,.05-6,0-29.33,0-58.65,0-87.98,0-2-.06-4-.06-6,0-3.33-1.78-4.8-4.99-4.8-2.33,0-4.66-.05-7-.05-29.99,0-59.99,.03-89.98-.02-15.56-.02-14.03,1.41-14.04-13.85-.02-157.63-.01-315.26-.02-472.88,0-3-.02-6-.1-9-.08-2.82-1.64-4.21-4.41-4.27-2.33-.05-4.66-.09-7-.09-29.99,0-59.99,0-89.98,0-13.35,0-12.41-.86-12.42,12.45,0,97.31,0,194.62,0,291.93Zm-2404.19,.17c0,97.3,0,194.6,0,291.9,0,3,.04,6,.1,8.99,.06,2.78,1.49,4.3,4.28,4.42,2,.09,4,.11,5.99,.11,69.31,0,138.62,.02,207.93,0,9.87,0,9.95-.09,9.96-9.92,.04-29.32,.02-58.65,.01-87.97,0-1.67-.07-3.33-.05-5,.06-3.86-2.05-5.3-5.65-5.23-2.33,.05-4.66-.02-7-.02-31.32,0-62.64,.05-93.97-.04-8.48-.02-9.16-.85-9.4-9.06-.08-2.66-.02-5.33-.02-8,0-156.94,0-313.89,0-470.83,0-3-.04-6-.07-9-.02-2.64-.98-4.59-3.92-4.75-2.66-.14-5.33-.14-7.99-.14-29.32,0-58.65,0-87.97,0-13.39,0-12.25-.58-12.25,12.66-.01,97.3,0,194.6,0,291.89Zm838.21-40.98h.04c0-83.32,0-166.65,0-249.97,0-3-.05-6-.09-9-.04-2.77-1.39-4.36-4.21-4.48-2.33-.1-4.66-.11-7-.12-30,0-59.99-.02-89.99,0-10.87,0-10.87,.05-10.92,10.97,0,2,0,4,0,6,0,150.31,0,300.63,0,450.94,0,2.67,.1,5.34-.03,8-.77,15.96-9.32,24.13-25.34,24.16-18.33,.04-36.66-.06-54.99,.05-8.5,.05-9.4,.87-9.43,9.01-.1,31-.09,61.99,0,92.99,.02,7.54,.23,7.72,8.04,7.76,21.66,.11,43.33-.15,64.99,.15,16.74,.23,33.1-2.21,49.23-6.2,19.04-4.71,36.58-13.19,50.77-26.6,17.75-16.78,28.65-37.85,28.77-62.7,.39-83.65,.15-167.31,.15-250.97Zm1877.87,25.41v40.99c0,100.96,0,201.93,0,302.89,0,10.98,.04,10.98,10.83,11.04,.33,0,.67,0,1,0,15.73-.11,14.14,1.45,14.14-13.7,.02-227.58,.02-455.17,0-682.75,0-14.74,1.35-13.52-13.32-13.54-13.84-.02-12.66-1.01-12.66,13.2-.01,113.96,0,227.92,0,341.88Z"/>
  <path class="cls-1" d="M702.45,2210.27c-7.48,29.87-14.98,59.73-22.42,89.6-12.2,48.95-24.34,97.92-36.55,146.87-2.3,9.22-2.4,9.41-11.83,9.22-22.82-.47-17.96,4.23-23.67-18.42-18.76-74.34-37.29-148.74-55.91-223.11-.23-.91-.11-2.05-1.56-2.31-1.24,3.46-.57,7.07-.57,10.59-.05,73.66-.04,147.32-.04,220.98,0,13.39,.69,12.29-12.59,12.3-29.66,.02-59.33,0-88.99,0-2.67,0-5.33-.02-8-.11-2.8-.09-4.22-1.62-4.29-4.4-.05-2.33-.1-4.66-.1-7,0-195.65,0-391.31,0-586.96,0-1-.02-2,0-3,.2-8.28,.2-8.43,8.38-8.47,19-.1,38-.03,57-.03,16.33,0,32.66-.06,49,.03,7.93,.04,8.04,.14,9.99,7.81,15.94,62.73,31.82,125.47,47.73,188.2,5.47,21.55,10.97,43.09,16.51,64.63,.32,1.23,1.13,2.34,2.25,4.57,4.75-11.15,6.39-22.13,9.1-32.75,14.98-58.86,29.44-117.85,44.7-176.64,4.25-16.38,8.46-32.78,12.67-49.18,1.37-5.35,3.64-6.79,8.79-6.77,36,.17,71.99,.05,107.99,.12,7.7,.02,7.71,.22,7.95,7.88,.05,1.66,.01,3.33,.01,5,0,194.65,0,389.31,0,583.96,0,14.21,1.16,13.07-12.78,13.09-29.33,.03-58.66,0-87.99,0-1.33,0-2.67,.02-4,0q-8.99-.15-9.17-8.7c-.05-2.33,0-4.67,0-7,0-72.99,0-145.99,0-218.98,0-3.65,0-7.3,0-10.95-.53-.03-1.06-.06-1.59-.1Z"/>
  <path class="cls-1" d="M3116.1,2085.94c0-3.65,0-7.3,0-10.94,0-72.32,0-144.64,0-216.96,0-12.76-.74-12,11.88-12,27.99,0,55.99,0,83.98,0,2.67,0,5.33,0,7.99,.14,2.29,.12,3.73,1.39,3.85,3.74,.14,2.66,.14,5.33,.14,7.99,0,195.29,0,390.59,0,585.88,0,13.32,.73,12.2-12.66,12.21-28.66,.02-57.32,.03-85.98-.01-8.75-.01-8.86-.07-10.95-8.14-10.15-39.2-20.21-78.41-30.34-117.61-7.47-28.92-14.97-57.82-22.51-86.73-.48-1.84-1.36-3.57-3.47-5.26v9.18c0,63.99,0,127.97,0,191.96,0,2,0,4,0,6-.06,10.53-.07,10.59-10.26,10.6-24.66,.04-49.32,.01-73.99,.01-5.33,0-10.67-.12-16,.01-4.28,.11-6.08-1.85-5.9-6.02,.1-2.33,0-4.66,0-7,0-194.63,0-389.26,0-583.88,0-14.17-1.07-13.07,12.81-13.08,25.33-.02,50.66-.03,75.98,0,10.06,.01,10.42,.28,12.92,9.89,10.88,41.75,21.67,83.52,32.6,125.26,8.66,33.07,17.46,66.1,26.23,99.14,.5,1.87,1.36,3.64,2.05,5.46,.54,.05,1.07,.1,1.61,.15Z"/>
  <path class="cls-1" d="M1574.44,1408.77c10.26,4.32,20.05,6.36,28.25,12.36,18.69,13.66,29.28,31.47,29.32,54.88,.1,49.99,.16,99.98-.03,149.96-.09,24.75-9.58,45.77-26.48,63.74-14.1,15-30.77,25.36-51.13,29.03-8.77,1.58-17.73,2.94-26.62,2.98-52.32,.28-104.64,.14-156.96,.13-2,0-4-.06-6-.07-3.34,0-4.79-1.79-4.81-4.99-.01-2.33-.05-4.66-.05-7,0-195.29,0-390.57,0-585.86,0-12.77-.69-12.06,11.84-12.06,43.66,0,87.31,0,130.97,0,6.31,0,12.61-1.15,18.81-1.39,39.95-1.55,73.19,12.03,95.58,46.42,10.11,15.52,15.24,32.88,15.05,51.9-.44,42.99-.92,86,.12,128.96,.79,32.58-20.11,61.1-52.71,69.97-1.25,.34-2.54,.51-5.15,1.02Zm-100.54,128.17c0,18.28-.13,36.57,.07,54.85,.07,6.23-2.75,14.04,1.4,18.31,4.54,4.68,12.63,1.79,19.12,1.78,15.07-.03,23.54-8.59,23.58-23.39,.07-29.92-.56-59.85,.23-89.75,.47-17.77-16.15-35.77-35.71-34.82-8.52,.41-8.64,.15-8.67,9.2-.07,21.28-.02,42.55-.02,63.83Zm-.03-250.28c0,18.63,0,37.27,0,55.9,0,2.33,.03,4.66,.1,6.99,.07,2.75,1.47,4.11,4.26,4.47,20.31,2.59,39.25-10.76,39.71-32.09,.58-26.61,.25-53.24,.11-79.86-.06-12.43-8.48-21.06-21.07-21.97-3.97-.29-7.98-.09-11.98-.08-11.07,.04-11.11,.04-11.13,10.74-.03,18.63,0,37.27,0,55.9Z"/>
  <path class="cls-1" d="M2863.28,2152.58c3.16,3.94,7.29,3.08,10.61,4.4,25.19,10.08,40.53,27.78,44.44,55.2,1.09,7.64,1.51,15.18,1.52,22.81,.02,69.66,.01,139.32,.01,208.98,0,12.7,.74,12.03-11.87,12.03-30,0-59.99,0-89.99,0-2,0-4-.09-6,0-4.09,.19-6.3-1.43-6.11-5.79,.12-2.66,0-5.33,0-8,0-64.33,0-128.65,0-192.98,0-4.31-.55-8.53-1.24-12.83-3.18-19.65-21.72-30.33-41.83-28.37-3.36,.33-4.72,1.92-4.7,5.1,.01,2.67-.04,5.33-.04,8,0,72.99,0,145.98,0,218.97,0,2,.02,4,0,6-.1,9.81-.1,9.88-9.98,9.89-31.33,.04-62.66,.02-93.99,0-2,0-4,0-5.99-.14-2.29-.16-3.72-1.41-3.85-3.76-.14-2.66-.15-5.33-.15-7.99,0-195.31,0-390.62,0-585.93,0-12.85-.76-12.15,11.73-12.15,57.99,0,115.99-.06,173.98,.03,35.58,.05,69.53,21.98,82.9,56.59,4.92,12.73,6.76,25.8,6.93,38.92,.58,45.65,.35,91.32,.17,136.98-.08,20.21-5.37,38.88-19.66,53.88-9.83,10.31-21.92,17.14-36.86,20.15Zm-105.22-125.84c0,18.3-.18,36.61,.05,54.91,.26,21.14-3.65,18.13,18.57,18.11,17.1-.02,28.99-11.84,29.13-28.85,.26-30.62,.18-61.24,.02-91.85-.06-12.11-6.25-19.5-17.85-23.42-5.91-2-11.83-1.41-17.78-1.47-12.86-.13-12.15-.76-12.15,11.66,0,20.3,0,40.6,0,60.9Z"/>
  <path class="cls-1" d="M734.14,1415.77c0-97.32,0-194.64,0-291.96q0-13.67,13.84-13.68c29.33,0,58.66,0,87.99,0,2,0,4,.09,6,0,4.08-.18,6.32,1.43,6.14,5.79-.11,2.66,0,5.33,0,8,0,74.32,0,148.64,0,222.97,0,2.33-.09,4.67,.03,7,.34,6.68,1.17,7.82,7.45,7.96,10.66,.23,21.33-.05,31.99,.12,4.64,.07,6.81-1.69,6.51-6.43-.17-2.66-.01-5.33-.01-8,0-74.66,0-149.31,0-223.97q0-13.4,13.08-13.43c28.66-.01,57.32,0,85.99,0,2,0,4.01-.11,6,.05,7.23,.58,8.6,2.01,8.85,9.08,.07,2,.01,4,.01,6,0,193.97,0,387.94,0,581.91,0,14.6-.04,14.66-14.32,14.67-29,.02-57.99,0-86.99,0-2.33,0-4.67,.04-6.99-.11-3.54-.23-5.45-2.21-5.56-5.77-.08-2.66-.07-5.33-.07-8,0-73.99,0-147.98,0-221.96,0-2,.02-4,0-6-.1-9.84-.1-9.88-9.95-9.93-8.33-.05-16.66-.05-25,0-10.65,.07-10.94,.39-11.01,11.48-.03,4.67,0,9.33,0,14,0,70.99,0,141.98,0,212.97,0,2.67-.06,5.33-.02,8,.06,3.81-1.92,5.36-5.56,5.32-4.67-.05-9.33,.02-14,.02-27,0-53.99,0-80.99,0-2.33,0-4.67-.01-7-.05-3.99-.06-6.23-2-6.33-6.08-.07-3-.06-6-.06-9,0-96.99,0-193.97,0-290.96Z"/>
  <path class="cls-1" d="M2033.94,2150.68c0-66.98,.06-133.96-.03-200.93-.04-29.83,11.21-54.72,31.42-76.32,19.09-20.4,42.91-30.72,69.84-35.09,2.93-.48,5.98-.26,8.98-.27,16.33-.02,32.66-.17,48.98,.01,30.95,.35,58.09,10.95,80.12,32.6,18.48,18.16,29.73,40.3,33.07,66.5,1.4,10.99,1.53,21.86,1.53,32.8,.06,125.96,.21,251.92-.07,377.87-.07,32.98-11.42,61.9-35.73,84.83-16.85,15.89-36.83,25.9-59.9,29.43-25.18,3.85-50.69,3.28-75.71,1.26-49.82-4-88.82-41.26-99.47-85.16-1.98-8.15-3.11-16.23-3.09-24.61,.1-67.64,.05-135.29,.05-202.93Zm113.96,.39c0,58.62,0,117.24,0,175.87,0,3-.04,6,.05,8.99,.22,7.83,4.25,13.99,11.19,16.28,17.51,5.76,29.25,.74,34.38-16.32,.92-3.08,.42-6.61,.43-9.93,.02-116.58,.01-233.16,.01-349.74,0-2.33,.22-4.69-.07-6.99-1.12-8.77-4.85-16.36-13.31-19.63-8.22-3.18-16.9-3.46-24.59,2.42-6.01,4.59-8.19,10.61-8.17,18.19,.17,60.29,.1,120.58,.09,180.86Z"/>
  <path class="cls-1" d="M2612.14,2108.98c0,79.65-.49,159.31,.2,238.95,.36,41.65-17.51,73.11-50.42,96.43-14.67,10.39-31.75,15.93-50.14,18.04-18.99,2.18-37.93,1.94-56.81,1.28-49.57-1.73-86.14-24.53-107-70.21-5.38-11.78-8.12-24.47-8.12-37.71,.09-166.3,.05-332.6,.05-498.9,0-2,.07-4,.07-6,0-3.36,1.81-4.77,5.01-4.77,2,0,4-.05,6-.05,29.99,0,59.99,0,89.98,0,1.67,0,3.34,.13,5,0,5-.39,6.38,2.36,6.16,6.76-.13,2.66-.01,5.33-.01,8,0,153.64,0,307.27,.02,460.91,0,4.64,.03,9.19,1.26,13.84,3.5,13.28,10.74,19.06,24.26,18.51,12.12-.5,20.56-8.61,22.11-21.55,.39-3.29,.15-6.66,.15-9.99,0-154.3,0-308.61,.02-462.91,0-14.68-1.39-13.53,13.33-13.55,29.66-.03,59.32-.03,88.98,0,9.82,.01,9.9,.09,9.91,9.98,.02,84.32,.01,168.63,.01,252.95Z"/>
  <path class="cls-1" d="M2655.96,1480.09c0,3.61,0,7.23,0,10.84,0,71.65,0,143.3,0,214.96,0,2.33,.06,4.67-.02,7-.25,7.84-1,8.89-8.53,8.92-32.66,.12-65.32,.1-97.98,0-7.01-.02-7.14-.38-7.42-7.41-.08-2-.01-4-.01-6,0-194.29,0-388.59,.01-582.88,0-14.75-1.38-13.61,13.26-13.63,29.33-.02,58.65-.02,87.98,0,13.82,0,12.7-1.05,12.7,13.19,.02,71.99,.01,143.97,.02,215.96,0,3.63,0,7.25,0,10.88,.47,.08,.95,.16,1.42,.24,3.53-14.01,7.16-27.99,10.58-42.03,11.71-48.03,23.36-96.07,34.99-144.11,3.82-15.8,7.46-31.64,11.3-47.43,2.02-8.27,2.24-8.42,10.69-8.44,27.99-.05,55.99-.06,83.98,0,9.6,.02,10.12,.82,7.76,10.52-10.35,42.56-20.7,85.12-31.07,127.67-10.93,44.8-21.9,89.59-32.82,134.39-2.12,8.7-4.1,17.43-6.11,26.16-1.14,4.94-1.05,9.85,.16,14.81,6.53,26.75,12.95,53.53,19.47,80.28,10.91,44.8,21.92,89.58,32.75,134.4,6,24.82,11.8,49.7,17.56,74.58,1.55,6.68,1.31,7.05-5.16,7.07-29.66,.11-59.32-.06-88.98,.13-6.39,.04-7.43-3.82-8.61-8.7-7.15-29.68-14.56-59.29-21.76-88.95-10.79-44.49-21.47-89.01-32.24-133.5-.75-3.09-1.86-6.1-2.8-9.15-.37,.07-.74,.14-1.1,.21Z"/>
  <path class="cls-1" d="M2235.94,1415.75c0-66.65-.05-133.31,.02-199.96,.04-35.89,14.73-64.71,42.31-87.36,20.35-16.7,43.47-25.02,69.86-24.59,17.66,.29,35.33,.04,52.99,.08,27.68,.07,50.99,10.94,71.1,29.28,26.49,24.14,37.65,54.8,37.68,90.05,.02,37.33,0,74.65,0,111.98,0,2.33-.11,4.67,0,7,.21,4.4-2.09,5.94-6.14,5.73-1.33-.07-2.67,0-4,0-31.33,0-62.66,.03-93.98-.01-9.72-.01-9.79-.09-9.8-10.05-.03-32.33,0-64.66-.03-96.98,0-3.97,.12-7.88-1.2-11.83-3.93-11.79-14.53-18.86-25.95-16.87-11.54,2.02-18.86,10.91-18.87,23.29-.03,91.98-.02,183.97-.02,275.95,0,27.99-.04,55.99,.02,83.99,.04,19.84,16.19,29.89,34.18,21.52,8.45-3.93,10.41-11.56,11.76-19.56,.44-2.59,.1-5.32,.1-7.99,0-40.33,0-80.65,0-120.98,0-2.67,.04-5.33,.1-8,.06-2.78,1.5-4.28,4.3-4.38,1.66-.06,3.33-.1,5-.1,31.66,0,63.32-.03,94.98,.01,9.41,.01,9.53,.11,9.53,9.33,.04,50.66,.79,101.33-.28,151.97-.61,28.69-10.96,54.45-31.32,75.61-17.12,17.79-37.34,29.63-61.81,34.07-3.98,.72-7.9,1.08-11.87,1.09-21,.06-42,.33-62.99-.05-23.05-.41-43.19-8.93-61.54-22.69-11.97-8.97-21.21-20.07-28.8-32.69-9.4-15.63-15.19-32.54-15.24-50.9-.16-68.65-.06-137.31-.06-205.96h-.02Z"/>
  <path class="cls-1" d="M2069.86,1110.14c18.66,0,37.32-.02,55.99,0,11.24,.02,11.59-.01,13.44,11.13,1.95,11.75,3.1,23.64,4.7,35.45,2.37,17.38,4.86,34.75,7.24,52.13,1.62,11.81,3.18,23.63,4.72,35.45,1.58,12.15,3.01,24.32,4.64,36.47,1.72,12.79,3.59,25.56,5.4,38.34,2.46,17.37,5.02,34.73,7.36,52.11,2.34,17.39,4.42,34.82,6.69,52.23,1.46,11.17,3.03,22.32,4.57,33.47,1.77,12.79,3.59,25.56,5.37,38.35,2.51,18.03,5.07,36.05,7.48,54.1,2.28,17.07,4.28,34.18,6.62,51.24,2.34,17.05,5.08,34.04,7.43,51.09,2.31,16.73,4.32,33.5,6.51,50.25,.56,4.27,1.62,8.49,1.85,12.77,.34,6.33-.26,6.99-6.58,7.06-14.99,.16-29.99,.06-44.99,.06-12.66,0-25.33,.06-37.99-.02-7.53-.05-8.81-.91-9.9-8.09-1.69-11.13-2.94-22.33-4.37-33.5-1.39-10.84-2.81-21.67-4.13-32.52-.43-3.54-2.26-5.47-5.79-5.59-3.66-.13-7.33-.09-11-.09-19,0-37.99-.06-56.99,.02-9.22,.04-9.09,.38-10.27,9.37-2.27,17.39-4.87,34.74-7.48,52.09-.64,4.27-.03,8.61-1.48,12.85-1.22,3.57-2.79,5.56-6.96,5.54-28.66-.13-57.32-.13-85.98-.02-5.08,.02-6.14-2.54-5.99-6.9,.21-6,1.71-11.8,2.4-17.73,2.83-24.33,6.32-48.58,9.75-72.84,3.06-21.63,7.03-43.16,9.32-64.86,1.84-17.48,5.03-34.74,6.79-52.23,1.72-17.11,4.95-34.06,7.32-51.1,2.28-16.4,4.24-32.85,6.48-49.26,2.36-17.38,4.94-34.74,7.32-52.12,2.29-16.73,4.39-33.49,6.66-50.23,2.45-18.04,5.03-36.06,7.5-54.09,2.2-16.08,4.27-32.17,6.48-48.25,2.48-18.03,5.15-36.04,7.56-54.08,1.36-10.17,2.45-20.37,3.97-30.53,.92-6.11,3.84-7.65,9.35-7.6,19.66,.16,39.32,.06,58.98,.06Zm1.17,236.69c-3.68,1.63-2.72,3.9-2.96,5.7-1.59,12.14-3.04,24.3-4.7,36.43-2.37,17.37-4.93,34.71-7.32,52.07-2.3,16.72-4.4,33.46-6.73,50.17-2.29,16.37-4.87,32.71-7.1,49.09-.86,6.32,.34,7.54,6.97,7.6,13.65,.14,27.3,.13,40.95,.01,7.8-.07,8.41-1.19,7.21-8.9-1.93-12.41-3.69-24.86-5.33-37.31-2.29-17.39-4.32-34.81-6.64-52.19-2.36-17.7-4.96-35.37-7.44-53.05-2.29-16.34-4.55-32.68-6.91-49.61Z"/>
  <path class="cls-1" d="M3246.5,2454.61c3.71-26.17,7.5-52.35,11.1-78.56,2.3-16.74,4.2-33.53,6.48-50.27,2.33-17.06,5.02-34.06,7.33-51.12,1.73-12.8,2.98-25.67,4.7-38.48,2.16-16.08,4.61-32.12,6.88-48.19,1.71-12.13,3.37-24.27,4.98-36.42,1.61-12.15,3.05-24.32,4.7-36.47,1.69-12.47,3.56-24.91,5.32-37.36,2.5-17.7,5.07-35.39,7.44-53.11,2.32-17.4,4.38-34.84,6.64-52.25,2.14-16.42,4.34-32.84,6.61-49.24,1.68-12.13,3.91-24.2,5.19-36.37,1.21-11.54,4.09-22.86,4.31-34.52,.07-3.97,2.2-6.13,6.27-6.17,2-.02,4-.05,6-.05,37.66,0,75.33-.01,112.99,0,11.49,0,11.19,.08,12.69,11.03,2.96,21.65,6.82,43.18,9.27,64.88,1.9,16.8,4.61,33.48,6.68,50.24,2.11,17.08,4.94,34.07,7.27,51.13,1.7,12.47,3.05,24.99,4.67,37.48,1.49,11.5,3.13,22.97,4.69,34.46,2.44,18.04,4.85,36.1,7.32,54.14,1.57,11.48,3.25,22.95,4.86,34.43,1.7,12.13,3.44,24.26,5.05,36.4,2.22,16.75,4.26,33.52,6.54,50.26,1.69,12.46,3.7,24.88,5.45,37.34,2.62,18.69,5.18,37.38,7.66,56.09,2.22,16.75,4.27,33.52,6.46,50.27,1.55,11.82,3.18,23.63,4.83,35.44,.82,5.82,.74,6.23-5.34,6.31-13,.17-26,.06-39,.06-15,0-30,.04-45-.02-8.73-.03-8.48-.14-9.63-8.38-2.29-16.39-4.93-32.74-7.31-49.12-.67-4.59-.72-9.28-1.43-13.86-.67-4.32-2.63-6.91-7.91-6.84-23,.28-46,.18-68.99,.08-4.02-.02-5.72,1.43-6.67,5.5-1.98,8.45-2.06,17.09-3.52,25.59-2.35,13.7-4.2,27.49-5.91,41.29-.52,4.15-2.08,5.81-6.25,5.79-30-.12-59.99-.1-89.99-.19-.91,0-1.82-.64-3.42-1.24Zm178.91-172.59c-9.32-68.33-18.44-135.16-27.55-202-3.82,17.62-6.06,35.23-8.45,52.81-2.37,17.38-4.95,34.73-7.35,52.11-1.68,12.14-3.13,24.31-4.82,36.44-2.32,16.72-4.78,33.42-7.13,50.14-.23,1.64-.03,3.33-.12,4.99-.18,3.72,1.47,5.53,5.27,5.52,16.27-.04,32.55-.02,50.15-.02Z"/>
  <path class="cls-1" d="M992.49,1846.04c19.66,0,39.32-.04,58.98,.02,7.26,.02,7.53,.1,8.72,7.28,2.11,12.73,3.91,25.52,5.74,38.29,2.58,18.02,5.18,36.03,7.57,54.08,2.31,17.4,4.32,34.84,6.55,52.25,1.39,10.84,2.87,21.67,4.41,32.49,1.77,12.45,3.69,24.88,5.47,37.32,2.58,18.02,5.15,36.04,7.59,54.08,1.6,11.82,2.89,23.67,4.48,35.49,2.42,18.04,5.05,36.05,7.47,54.09,2.28,17.07,4.27,34.18,6.61,51.24,2.34,17.05,5.08,34.04,7.45,51.09,2.28,16.4,4.24,32.84,6.47,49.25,2.36,17.38,5.08,34.72,7.26,52.12,1.4,11.17,2.74,22.34,4.53,33.47,.95,5.93-.35,7.3-6.21,7.33-28.32,.12-56.65,.11-84.97,.01-5.91-.02-7.64-1.65-8.41-7.48-2.81-21.34-5.64-42.67-8.1-64.05-.52-4.49-1.79-6.58-6.54-6.56-23.66,.12-47.32,.12-70.98,0-4.64-.02-6.16,1.78-6.7,6.38-2.43,20.71-5.28,41.38-8.03,62.06-1.15,8.66-2.35,9.69-11.53,9.7-26.32,.04-52.65,.05-78.97,0-9.28-.02-10.46-1.34-9.15-10.43,3.13-21.62,6.62-43.19,9.56-64.83,3.66-26.9,6.74-53.89,10.42-80.79,4.35-31.81,9.25-63.55,13.6-95.36,3.68-26.9,6.75-53.88,10.41-80.79,3.65-26.89,8.37-53.66,11.35-80.62,2.48-22.4,6.39-44.58,8.79-66.99,2.32-21.7,6.37-43.22,9.34-64.86,2.39-17.39,4.29-34.84,6.44-52.26,.2-1.64,.52-3.28,.9-4.88,1.91-8.04,1.93-8.11,10.51-8.13,19.66-.04,39.32-.01,58.98-.01Zm.29,236.93c-3.48,1.36-2.48,3.66-2.72,5.44-2.23,16.74-4.33,33.49-6.6,50.22-2.41,17.71-4.96,35.39-7.45,53.09-2.4,17.04-4.95,34.06-7.18,51.13-1.46,11.16-2.52,22.37-4.61,33.45-.65,3.47,.8,5.76,4.85,5.75,15.32-.05,30.65-.02,45.97-.02,4.05,0,5.1-2.25,4.55-5.88-2.33-15.38-4.34-30.81-6.21-46.26-2.63-21.67-6.36-43.21-9.3-64.85-2.99-21.98-5.25-44.06-8.62-65.97-.8-5.17-.51-10.9-2.68-16.09Z"/>
  <path class="cls-1" d="M1422.14,2151.15v-287.91c0-2-.02-4,0-6,.11-10.82,.39-11.18,11.31-11.19,69.64-.03,139.29-.01,208.93-.01,1.67,0,3.33,.04,5,.04,4,.01,6.23,1.92,6.41,5.99,.07,1.66,.07,3.33,.07,5,0,29.32,.03,58.65-.01,87.97-.02,10.27-.52,10.79-10.68,10.8-31.32,.05-62.65,.02-93.97,.02-2.33,0-4.67,.1-7,0-4.11-.17-6.29,1.52-6.09,5.83,.08,1.66,0,3.33,0,5,0,39.65,0,79.31,0,118.96,0,2,.02,4,.1,6,.11,2.77,1.57,4.27,4.37,4.34,2.33,.06,4.66,.1,7,.1,22.66,0,45.32-.04,67.98,.03,9.7,.03,10.33,.63,10.35,10.11,.07,30.32,.06,60.65,0,90.97-.02,8.58-.15,8.69-9.11,8.71-23.33,.06-46.65,0-69.98,.03-10.63,.01-10.7,.05-10.7,10.17-.03,39.99-.03,79.97,0,119.96,0,9.95,.09,10.03,9.86,10.04,31.32,.04,62.65,.01,93.97,.02,2.67,0,5.33-.02,8,.07,3.52,.13,5.57,1.96,5.81,5.53,.14,1.99,.11,4,.11,5.99,0,28.99,.03,57.98-.01,86.97-.02,10.89-.4,11.28-11.21,11.29-69.64,.03-139.29,.01-208.93,.01-1.67,0-3.33-.04-5-.04-4.65,.02-6.55-2.53-6.54-6.92,0-2.67-.03-5.33-.03-8,0-96.64,0-193.27,0-289.91Z"/>
  <path class="cls-1" d="M1040.1,1415.95c0-97.33,0-194.66,0-291.98q0-13.82,13.69-13.83c68,0,135.99,0,203.99,0,2.33,0,4.67,.07,7,.04,3.8-.05,5.37,1.9,5.32,5.57-.06,5,0,10,0,15,0,26.33,.02,52.66-.01,79-.01,10.21-.08,10.26-10.62,10.26-31,.03-62,0-92.99,.01-2.67,0-5.33,.03-8,.1-2.8,.08-4.24,1.58-4.32,4.37-.06,2-.09,4-.09,6,0,40,0,80,0,119.99,0,1-.03,2,.01,3,.34,7.25,1.1,8.08,8.04,8.43,2.33,.12,4.67,.03,7,.03,22,0,44-.05,66,.03,8.53,.03,8.73,.16,8.75,8.09,.08,30.66,.09,61.33,0,91.99-.02,7.85-.22,7.97-8.84,8-22.33,.07-44.66,.02-67,.03-2.33,0-4.67,.06-7,.02-4.45-.08-6.9,1.92-6.92,6.53,0,1.67-.04,3.33-.04,5,0,40,0,80,0,119.99,0,2,.03,4,.1,6,.1,2.81,1.62,4.23,4.4,4.28,2.67,.06,5.33,.09,8,.09,30.33,0,60.66,0,90.99,0,2.33,0,4.67,.07,7,.02,3.68-.08,5.6,1.56,5.51,5.35-.03,1.33,.03,2.67,.03,4,0,30.33,.03,60.66-.02,90.99-.01,9.37-.11,9.49-9.4,9.49-70,.04-139.99,.04-209.99,0-10.27,0-10.59-.42-10.59-11.91-.01-97.99,0-195.99,0-293.98Z"/>
  <path class="cls-1" d="M512.04,1470.32c0-79.33,0-158.65,0-237.98,0-13.35,.75-12.32-12.55-12.33-18.67-.01-37.33,.07-56-.05-7.15-.05-7.49-.33-7.52-7.28-.1-31.66-.1-63.33,0-94.99,.02-7.09,.38-7.26,7.32-7.53,2.66-.11,5.33-.02,8-.02,78.66,0,157.32,0,235.98,0,2,0,4-.03,6,0,8.67,.17,8.79,.18,8.81,9.09,.06,30.66,.06,61.33,0,91.99-.02,8.62-.16,8.73-9.09,8.76-19.66,.07-39.33-.05-59,.06-7.72,.04-7.74,.22-7.97,7.86-.08,2.66-.02,5.33-.02,8,0,156.99,0,313.98,0,470.96q0,14.96-15,14.99c-28.33,.01-56.66,0-84.99,0q-13.94,0-13.96-13.56c0-79.33,0-158.65,0-237.98Z"/>
  <path class="cls-1" d="M1664.04,1415.67c0-97.32,0-194.65,0-291.97q0-13.55,13.95-13.56c29.33,0,58.66,0,87.99,0,2.33,0,4.67,.06,7,.05,3.25-.01,4.95,1.51,4.95,4.83,0,3,.06,6,.06,9,0,158.32,0,316.64,.01,474.95,0,14.21-1.1,12.99,12.85,13.01,30,.03,59.99,0,89.99,0,2,0,4-.07,6,.02,6.85,.31,6.91,.39,7.18,7.67,.04,1,0,2,0,3,0,29.33,0,58.66,0,87.99,0,1.33-.1,2.67,.01,4,.42,4.93-1.36,7.67-6.74,7.2-1.65-.15-3.33-.01-5-.01-68.33,0-136.65,0-204.98,0-.33,0-.67,0-1,0-12.19-.06-12.29-.1-12.29-12.22-.01-97.99,0-195.98,0-293.97Z"/>
  <path class="cls-1" d="M3566.04,2150.42c0-97.31,0-194.62,0-291.93,0-13.31-.94-12.45,12.42-12.45,29.99,0,59.99,0,89.98,0,2.33,0,4.66,.04,7,.09,2.77,.06,4.33,1.45,4.41,4.27,.08,3,.1,6,.1,9,0,157.63,0,315.26,.02,472.88,0,15.25-1.52,13.82,14.04,13.85,29.99,.05,59.99,.01,89.98,.02,2.33,0,4.66,.06,7,.05,3.22,0,4.99,1.46,4.99,4.8,0,2,.06,4,.06,6,0,29.33,0,58.65,0,87.98,0,2-.05,4-.05,6,0,3.2-1.41,5.01-4.78,4.98-2-.01-4,.06-6,.06-69.32,0-138.63,0-207.95,0-2,0-4-.08-6-.04-3.87,.08-5.3-2.01-5.21-5.62,.07-2.66,0-5.33,0-8,0-97.31,0-194.62,0-291.93Z"/>
  <path class="cls-1" d="M1161.86,2150.59c0-97.3,0-194.6,0-291.89,0-13.24-1.14-12.66,12.25-12.66,29.32,0,58.65,0,87.97,0,2.66,0,5.33,0,7.99,.14,2.94,.16,3.9,2.11,3.92,4.75,.03,3,.07,6,.07,9,0,156.94,0,313.89,0,470.83,0,2.67-.06,5.33,.02,8,.24,8.21,.92,9.04,9.4,9.06,31.32,.09,62.64,.04,93.97,.04,2.33,0,4.67,.06,7,.02,3.59-.07,5.71,1.37,5.65,5.23-.02,1.67,.04,3.33,.05,5,0,29.32,.03,58.65-.01,87.97-.01,9.83-.09,9.92-9.96,9.92-69.31,.03-138.62,.01-207.93,0-2,0-4-.03-5.99-.11-2.79-.12-4.23-1.64-4.28-4.42-.06-3-.1-6-.1-8.99,0-97.3,0-194.6,0-291.9Z"/>
  <path class="cls-1" d="M2000.07,2109.61c0,83.66,.24,167.31-.15,250.97-.12,24.85-11.02,45.92-28.77,62.7-14.19,13.41-31.73,21.89-50.77,26.6-16.13,3.99-32.49,6.44-49.23,6.2-21.66-.3-43.33-.04-64.99-.15-7.82-.04-8.02-.21-8.04-7.76-.09-31-.09-61.99,0-92.99,.03-8.14,.93-8.96,9.43-9.01,18.33-.11,36.66,0,54.99-.05,16.02-.04,24.57-8.21,25.34-24.16,.13-2.66,.03-5.33,.03-8,0-150.31,0-300.63,0-450.94,0-2,0-4,0-6,.05-10.92,.05-10.96,10.92-10.97,30-.02,59.99-.01,89.99,0,2.33,0,4.67,.02,7,.12,2.82,.12,4.17,1.72,4.21,4.48,.04,3,.09,6,.09,9,0,83.32,0,166.65,0,249.97h-.04Z"/>
  <path class="cls-1" d="M3877.93,2135.02c0-113.96,0-227.92,0-341.88,0-14.21-1.18-13.22,12.66-13.2,14.67,.02,13.32-1.2,13.32,13.54,.01,227.58,.02,455.17,0,682.75,0,15.16,1.59,13.6-14.14,13.7-.33,0-.67,0-1,0-10.79-.05-10.83-.05-10.83-11.04-.01-100.96,0-201.93,0-302.89v-40.99Z"/>
  <path class="cls-2" d="M1473.9,1536.94c0-21.28-.05-42.55,.02-63.83,.03-9.04,.15-8.78,8.67-9.2,19.56-.95,36.18,17.05,35.71,34.82-.79,29.9-.16,59.83-.23,89.75-.04,14.79-8.51,23.36-23.58,23.39-6.5,.01-14.58,2.9-19.12-1.78-4.15-4.27-1.33-12.08-1.4-18.31-.21-18.28-.07-36.57-.07-54.85Z"/>
  <path class="cls-2" d="M1473.86,1286.66c0-18.63-.02-37.27,0-55.9,.02-10.7,.06-10.7,11.13-10.74,3.99-.01,8-.21,11.98,.08,12.59,.9,21.01,9.54,21.07,21.97,.13,26.62,.46,53.25-.11,79.86-.46,21.33-19.41,34.69-39.71,32.09-2.78-.36-4.18-1.72-4.26-4.47-.06-2.33-.1-4.66-.1-6.99,0-18.63,0-37.27,0-55.9Z"/>
  <path class="cls-2" d="M2758.07,2026.74c0-20.3,0-40.6,0-60.9,0-12.42-.72-11.79,12.15-11.66,5.94,.06,11.87-.53,17.78,1.47,11.6,3.92,17.79,11.31,17.85,23.42,.16,30.62,.24,61.24-.02,91.85-.14,17.01-12.04,28.83-29.13,28.85-22.22,.02-18.31,3.03-18.57-18.11-.22-18.3-.05-36.61-.05-54.91Z"/>
  <path class="cls-2" d="M2147.9,2151.06c0-60.29,.08-120.58-.09-180.86-.02-7.58,2.16-13.61,8.17-18.19,7.69-5.87,16.37-5.59,24.59-2.42,8.46,3.27,12.2,10.86,13.31,19.63,.29,2.3,.07,4.66,.07,6.99,0,116.58,0,233.16-.01,349.74,0,3.32,.5,6.86-.43,9.93-5.12,17.06-16.87,22.08-34.38,16.32-6.94-2.28-10.97-8.45-11.19-16.28-.09-3-.05-6-.05-8.99,0-58.62,0-117.24,0-175.87Z"/>
  <path class="cls-2" d="M2071.03,1346.83c2.36,16.93,4.62,33.27,6.91,49.61,2.48,17.68,5.07,35.35,7.44,53.05,2.32,17.38,4.35,34.8,6.64,52.19,1.64,12.46,3.4,24.9,5.33,37.31,1.2,7.71,.59,8.83-7.21,8.9-13.65,.12-27.3,.13-40.95-.01-6.63-.07-7.82-1.29-6.97-7.6,2.22-16.38,4.81-32.72,7.1-49.09,2.33-16.71,4.43-33.45,6.73-50.17,2.39-17.36,4.94-34.7,7.32-52.07,1.66-12.13,3.11-24.29,4.7-36.43,.24-1.8-.72-4.07,2.96-5.7Z"/>
  <path class="cls-2" d="M3425.42,2282.02c-17.6,0-33.88-.02-50.15,.02-3.81,0-5.46-1.8-5.27-5.52,.08-1.66-.11-3.36,.12-4.99,2.35-16.72,4.81-33.42,7.13-50.14,1.69-12.14,3.14-24.3,4.82-36.44,2.4-17.38,4.98-34.73,7.35-52.11,2.4-17.58,4.63-35.19,8.45-52.81,9.12,66.84,18.23,133.67,27.55,202Z"/>
  <path class="cls-2" d="M992.78,2082.96c2.17,5.19,1.88,10.91,2.68,16.09,3.37,21.91,5.63,44,8.62,65.97,2.94,21.64,6.67,43.18,9.3,64.85,1.87,15.45,3.88,30.87,6.21,46.26,.55,3.63-.5,5.88-4.55,5.88-15.32,0-30.65-.03-45.97,.02-4.05,.01-5.5-2.28-4.85-5.75,2.09-11.08,3.15-22.29,4.61-33.45,2.23-17.06,4.77-34.09,7.18-51.13,2.49-17.69,5.04-35.38,7.45-53.09,2.27-16.73,4.38-33.48,6.6-50.22,.24-1.78-.76-4.08,2.72-5.44Z"/>
</svg>